<svg width="128mm" height="128mm" version="1.1" viewBox="0 0 128 128" xmlns="http://www.w3.org/2000/svg"><g transform="translate(-49.047 -12.34)"><g transform="translate(-1.0035 -3.8524)" stroke="#fff" stroke-width=".5"><path d="m156.81 16.193c-0.10191 0-0.33784 0.38696-0.52399 0.8599-1.0638 2.703-3.4822 5.8766-5.8332 7.6548-1.406 1.0635-4.3083 2.5974-4.916 2.5978-0.19472 1.4e-4 -0.36496-0.75477-0.4625-2.0505-0.20948-2.7827-0.93949-8.0338-1.1756-8.4558-0.12554-0.22432-0.43425 0.15094-0.89297 1.0862-0.98874 2.016-3.5114 4.5984-7.0698 7.2368-5.9512 4.4124-6.9445 5.2117-8.3189 6.6962-1.6856 1.8207-2.3338 3.1096-2.4903 4.9527-0.46273 5.4512 6.3147 9.3485 17.996 10.349 3.7841 0.32401 5.6422 1.4418 6.8699 4.1336 0.57674 1.2646 0.60882 1.7062 0.77721 10.58 0.0967 5.0932 0.31194 10.094 0.47801 11.112 1.0799 6.6241 3.1111 9.2034 8.7519 11.112l1.7198 0.58188-1.5828 0.19895c-4.4681 0.56213-7.0973 2.6284-8.4341 6.628-0.48567 1.4531-0.54488 2.5509-0.70073 12.965-0.19269 12.875-0.25196 13.294-2.1534 15.357-1.9305 2.0943-1.8218 2.0804-15.063 1.8939-10.687-0.15049-11.721-0.20481-12.778-0.67231-1.2434-0.55-2.297-1.7612-2.7756-3.1905-0.21914-0.65453-0.30127-23.487-0.30127-36.408 0-12.921 0.0793-33.991 0-35.508-0.0793-1.5166-0.21112-1.7244-0.83354-2.3528-0.62242-0.62847-0.98834-0.76786-11.897-0.78393-1.7468-0.0026-13.966-0.09441-18.623-0.04341-7.8262 0.0857-8.5974 0.13609-10.197 0.66508-3.0447 1.0067-4.6406 2.9064-5.8265 6.936-0.54126 1.8391-0.59756 2.7541-0.7767 12.567-0.20761 11.372-0.29739 12.148-1.6764 14.501-1.1556 1.9719-2.705 2.9473-6.1552 3.8757-3.483 0.93727-4.5347 1.8801-4.1641 3.7331 0.21428 1.0714 0.9908 1.5395 3.5429 2.1337 5.0211 1.1692 7.3136 3.5479 7.9199 8.2176 0.13816 1.0639 0.25492 5.7636 0.25942 10.444 9e-3 9.0064 0.18717 10.881 1.3255 13.911 1.1953 3.182 3.0845 5.1636 6.0167 6.3128 2.0604 0.8075 7.4928 1.0332 9.6656 0.40153 2.0917-0.60807 2.8443-1.2845 2.8443-2.557 0-1.4201-0.65597-1.7877-3.7279-2.0882-4.1998-0.41084-6.1566-1.2298-7.3856-3.7326 0 0-0.3952-0.93284-0.58601-1.7508s-0.2527-9.1534-0.2527-9.1534c-0.1777-9.1518-0.38614-11.718-1.1746-14.471-1.1795-4.1189-3.6209-6.4913-8.1075-7.8781l-1.3875-0.42891 1.3637-0.21187c3.3969-0.52818 6.0135-2.1012 7.2967-4.3858 1.5445-2.7499 1.5932-3.1756 1.7761-15.549 0.16134-10.911 0.19264-11.438 0.75396-12.85 0.65577-1.6499 1.5107-2.5701 3.1528-3.3931 1.0861-0.5443 1.4255-0.55811 13.573-0.55811 10.962 0 12.561 0.05163 13.306 0.42892 1.1357 0.57509 1.7404 1.132 2.2629 2.0841 0.39697 0.72338 0.44745 4.0223 0.56792 36.91 0 0-0.19054 35.412 0.13229 36.116s0.56948 1.0583 0.56948 1.0583c0.66013 1.2266 1.4371 1.9875 2.7378 2.681 1.0964 0.58451 12.577 0.47287 22.273 0.50592 0 0 9.6496 0.13921 11.991-0.27751 2.3414-0.41672 2.1027-0.74259 2.1027-0.74259 4.5791-1.6176 6.4501-4.0412 7.4218-9.6134 0.30072-1.7245 0.3972-4.3537 0.39119-10.651-9e-3 -9.01 0.23175-11.526 1.324-13.848 1.0154-2.159 2.9932-3.5279 6.257-4.331 2.0151-0.49583 3.5233-1.1686 4.0545-1.8087 0.50408-0.60738 0.43877-2.4405-0.10852-3.0453-0.2798-0.30917-1.3745-0.71641-2.8169-1.0485-4.6098-1.0614-6.7858-2.8502-7.9127-6.5045-0.22008-0.71369-0.38953-4.5479-0.5209-11.774-0.18109-9.9607-0.23605-10.855-0.78032-12.698-2.0118-6.8119-5.4992-8.9768-14.487-8.9927-4.6265-8e-3 -8.795-1.1043-10.642-2.7983-0.88633-0.81279-0.95003-0.97582-0.93948-2.4128 9e-3 -1.2293 0.19088-1.8765 0.89917-3.1993 0.91048-1.7004 3.4735-4.6038 4.8375-5.575 0 0 0.61837-0.62534 0.71723-0.59569 0.0989 0.02965-0.40359 0.96635-0.40359 0.96635-0.47654 1.1405-0.54516 3.2689-0.13022 4.0442 0.51934 0.97039 2.0152 1.8876 3.5367 2.1689 1.8149 0.33551 4.239-0.15672 6.674-1.3555 1.9763-0.97293 5.5392-3.8034 7.6181-6.0518 0.84442-0.91326 1.6095-1.5867 1.7002-1.496 0.0906 0.0906 0.21844 1.4608 0.2837 3.0448 0.16019 3.888-0.34309 6.1014-2.0733 9.1188-0.72239 1.2599-1.3136 2.4675-1.3136 2.6841 0 1.1786 3.6397-0.61402 5.6456-2.7807 1.9211-2.075 2.4344-3.5508 2.3926-6.8797-0.0469-3.7437-1.3763-7.8131-4.1274-12.634-0.60208-1.055-1.1781-1.9182-1.28-1.9182zm-16.619 46.512c-1.9262 3.8e-5 -3.4876 1.5615-3.4876 3.4876 4e-5 1.9262 1.5615 3.4876 3.4876 3.4876 1.9262-4e-5 3.4876-1.5615 3.4876-3.4876-4e-5 -1.9262-1.5615-3.4876-3.4876-3.4876zm-52.304 1e-6c-1.9262 3.8e-5 -3.4876 1.5615-3.4876 3.4876 3.8e-5 1.9262 1.5615 3.4876 3.4876 3.4876 1.9262-3.8e-5 3.4876-1.5615 3.4876-3.4876-3.8e-5 -1.9262-1.5615-3.4876-3.4876-3.4876z" fill="#1a1a1a"/><path d="m83.254 100.2c-0.55985-8e-3 -1.0713 0.48299-1.8304 1.4847-1.0865 1.4338-1.4127 2.5243-0.85731 2.8675 0.16927 0.10463 0.12072 0.37465-0.13229 0.73587-0.57668 0.82332-0.51711 1.0505 0.66508 2.5461 0.734 0.92857 1.2474 1.3397 1.6536 1.325 0.32403-0.0118 1.8001-0.58464 3.2804-1.2733 4.176-1.9428 4.249-2.0815 2.005-3.8246-0.83674-0.64998-2.1123-1.7881-2.8344-2.529-0.85532-0.87763-1.4238-1.325-1.9498-1.3322z" fill="#f00"/><path d="m138.9 41.244c-2.5582-0.4847-4.1554-0.91563-5.793-2.1913-0.30563-0.23807-0.78888-0.63368-0.97815-1.2293-0.34657-1.3413-0.13892-3.5613 2.4342-6.5371 1.0262-1.1868 2.6525-3.267 3.0223-3.1391 0.15827 0.25396-0.20091 0.63237-0.33425 1.9916 0.0128 1.698 0.0976 2.5509 1.3622 3.434 1.4268 0.99633 2.7574 1.2578 4.2979 1.1713 1.8673-0.0067 3.4187-0.59327 5.2272-1.5003 2.2401-1.1234 3.588-2.3091 6.9541-5.4167 0.9797-0.90446 1.923-2.1882 2.1073-1.8689 0.27936 0.48391 0.16212 2.0147-0.14863 3.9798-0.5813 3.6761-1.977 5.6798-4.1446 7.9427-1.657 1.73-4.3289 3.2078-6.5439 3.4964-3.0635 0.45478-5.3467 0.24577-7.4627-0.13322z" fill="#f60"/></g></g></svg>
